<svg width="600" height="400" viewBox="0 0 600 400" xmlns="http://www.w3.org/2000/svg">
  <!-- Background Shape -->
  <path d="M50,350 Q200,250 350,300 T600,250" fill="#2980b9" opacity="0.2" />
  
  <!-- Shopping Cart -->
  <g transform="translate(300, 200) scale(0.7)">
    <rect x="-80" y="-40" width="160" height="120" rx="10" fill="#ecf0f1" stroke="#34495e" stroke-width="4" />
    <circle cx="-40" cy="100" r="20" fill="#95a5a6" stroke="#34495e" stroke-width="3" />
    <circle cx="40" cy="100" r="20" fill="#95a5a6" stroke="#34495e" stroke-width="3" />
    <path d="M-70,-40 L-50,-80 L60,-80 L80,-40" fill="none" stroke="#34495e" stroke-width="4" />
  </g>
  
  <!-- Products in Cart -->
  <g transform="translate(290, 170) scale(0.5)">
    <rect x="-50" y="-30" width="40" height="40" rx="5" fill="#e74c3c" />
    <rect x="0" y="-25" width="30" height="30" rx="5" fill="#2ecc71" />
    <rect x="-20" y="-15" width="25" height="25" rx="5" fill="#f1c40f" />
  </g>
  
  <!-- Person Shopping (Simplified) -->
  <g transform="translate(150, 200)">
    <circle cx="0" cy="-60" r="25" fill="#f39c12" />
    <path d="M0,-35 L0,40 M-20,0 L20,0 M0,40 L-20,80 M0,40 L20,80" fill="none" stroke="#34495e" stroke-width="4" stroke-linecap="round" />
  </g>
  
  <!-- Person Selling (Simplified) -->
  <g transform="translate(450, 200)">
    <circle cx="0" cy="-60" r="25" fill="#3498db" />
    <path d="M0,-35 L0,40 M-20,0 L20,0 M0,40 L-20,80 M0,40 L20,80" fill="none" stroke="#34495e" stroke-width="4" stroke-linecap="round" />
    <rect x="-30" y="-20" width="60" height="40" rx="5" fill="#e74c3c" opacity="0.5" />
  </g>
  
  <!-- Transfer Arrow -->
  <g transform="translate(300, 120)">
    <path d="M-70,0 L70,0" stroke="#34495e" stroke-width="4" />
    <path d="M50,-15 L70,0 L50,15" fill="none" stroke="#34495e" stroke-width="4" />
    <path d="M-50,-15 L-70,0 L-50,15" fill="none" stroke="#34495e" stroke-width="4" />
  </g>
  
  <!-- Decorative Elements -->
  <circle cx="100" cy="80" r="15" fill="#3498db" opacity="0.5" />
  <circle cx="500" cy="100" r="20" fill="#2ecc71" opacity="0.5" />
  <circle cx="450" cy="350" r="12" fill="#f1c40f" opacity="0.5" />
  <circle cx="150" cy="320" r="18" fill="#9b59b6" opacity="0.5" />
</svg>
